<svg width="198" height="198" viewBox="0 0 198 198" fill="none" xmlns="http://www.w3.org/2000/svg">
<path d="M77.8042 145.441L69.7851 153.41C66.4258 156.717 61.9011 158.57 57.1874 158.57C52.4737 158.57 47.949 156.717 44.5897 153.41C42.9517 151.788 41.6515 149.858 40.7642 147.73C39.8769 145.603 39.42 143.321 39.42 141.016C39.42 138.71 39.8769 136.428 40.7642 134.301C41.6515 132.173 42.9517 130.243 44.5897 128.621L74.0917 99.3663C80.2 93.2976 91.7038 84.3678 100.089 92.6838C100.991 93.646 102.078 94.4166 103.285 94.9495C104.492 95.4824 105.794 95.7667 107.113 95.7855C108.432 95.8043 109.741 95.5572 110.962 95.0589C112.184 94.5606 113.292 93.8214 114.222 92.8853C115.151 91.9492 115.882 90.8354 116.372 89.6105C116.862 88.3856 117.099 87.0745 117.071 85.7557C117.043 84.4369 116.749 83.1372 116.208 81.9343C115.666 80.7315 114.888 79.65 113.919 78.7545C99.6832 64.6173 78.616 67.2309 60.2713 85.437L30.7693 114.701C27.2834 118.138 24.5178 122.235 22.6344 126.754C20.7509 131.272 19.7873 136.12 19.8001 141.016C19.7879 145.911 20.7517 150.759 22.6351 155.277C24.5186 159.795 27.2838 163.893 30.7693 167.33C37.7952 174.299 47.2962 178.2 57.1924 178.18C66.7657 178.18 76.339 174.567 83.6155 167.33L91.6444 159.36C92.56 158.455 93.2878 157.377 93.786 156.19C94.2842 155.002 94.5431 153.728 94.5477 152.441C94.5523 151.153 94.3025 149.877 93.8128 148.686C93.3231 147.495 92.603 146.412 91.6939 145.5C89.8561 143.658 87.3637 142.617 84.7613 142.606C82.1588 142.595 79.6576 143.614 77.8042 145.441ZM167.221 31.7493C151.906 16.5627 130.502 15.741 116.345 29.799L106.356 39.7188C104.51 41.5515 103.468 44.0424 103.458 46.6435C103.449 49.2446 104.474 51.7429 106.306 53.5887C108.139 55.4345 110.63 56.4767 113.231 56.486C115.832 56.4953 118.33 55.4709 120.176 53.6382L130.175 43.7283C137.501 36.4419 147.114 39.4614 153.401 45.6786C156.727 48.9951 158.568 53.3907 158.568 58.0734C158.568 62.7561 156.727 67.1517 153.401 70.4583L121.919 101.683C107.524 115.949 100.772 109.266 97.8913 106.405C96.9773 105.498 95.8935 104.779 94.7019 104.291C93.5102 103.802 92.234 103.553 90.9461 103.557C89.6581 103.562 88.3837 103.82 87.1955 104.317C86.0074 104.814 84.9288 105.541 84.0213 106.455C83.1139 107.369 82.3953 108.452 81.9067 109.644C81.4181 110.836 81.169 112.112 81.1736 113.4C81.1782 114.688 81.4364 115.962 81.9335 117.15C82.4306 118.339 83.1569 119.417 84.0708 120.325C90.6841 126.878 98.2279 130.126 106.128 130.126C115.8 130.126 126.027 125.255 135.759 115.602L167.241 84.3876C170.719 80.9457 173.479 76.8472 175.36 72.33C177.242 67.8127 178.207 62.9668 178.2 58.0734C178.209 53.1765 177.243 48.3268 175.358 43.8073C173.473 39.2877 170.707 35.1887 167.221 31.7493Z" fill="white"/>
</svg>
