<svg width="16" height="16" viewBox="0 0 16 16" fill="none" xmlns="http://www.w3.org/2000/svg">
<path d="M6.28718 11.7528L5.63918 12.3968C5.36772 12.664 5.00209 12.8138 4.62119 12.8138C4.24028 12.8138 3.87465 12.664 3.60319 12.3968C3.47083 12.2658 3.36576 12.1098 3.29406 11.9378C3.22236 11.7659 3.18544 11.5815 3.18544 11.3952C3.18544 11.209 3.22236 11.0245 3.29406 10.8526C3.36576 10.6807 3.47083 10.5247 3.60319 10.3936L5.98718 8.02962C6.48078 7.53922 7.41038 6.81762 8.08798 7.48962C8.1609 7.56738 8.24874 7.62964 8.34625 7.67271C8.44376 7.71577 8.54895 7.73875 8.65554 7.74027C8.76213 7.74179 8.86793 7.72182 8.96663 7.68155C9.06533 7.64128 9.1549 7.58155 9.23001 7.5059C9.30511 7.43026 9.36421 7.34026 9.40377 7.24127C9.44333 7.14229 9.46255 7.03635 9.46027 6.92977C9.45799 6.8232 9.43426 6.71818 9.39051 6.62098C9.34675 6.52378 9.28386 6.43639 9.20558 6.36402C8.05518 5.22162 6.35278 5.43282 4.87038 6.90402L2.48639 9.26882C2.2047 9.54654 1.98122 9.87763 1.82902 10.2427C1.67682 10.6079 1.59896 10.9997 1.59999 11.3952C1.599 11.7908 1.67689 12.1826 1.82908 12.5477C1.98128 12.9128 2.20473 13.2439 2.48639 13.5216C3.05414 14.0848 3.8219 14.4001 4.62158 14.3984C5.39518 14.3984 6.16878 14.1064 6.75678 13.5216L7.40558 12.8776C7.47957 12.8044 7.53839 12.7174 7.57865 12.6214C7.61891 12.5255 7.63982 12.4225 7.64019 12.3185C7.64057 12.2144 7.62039 12.1113 7.58081 12.015C7.54124 11.9188 7.48305 11.8313 7.40958 11.7576C7.26108 11.6087 7.05968 11.5246 6.84937 11.5237C6.63907 11.5228 6.43696 11.6052 6.28718 11.7528ZM13.5128 2.56562C12.2752 1.33842 10.5456 1.27202 9.40158 2.40802L8.59438 3.20962C8.44523 3.35772 8.36101 3.559 8.36026 3.76919C8.35951 3.97938 8.44229 4.18126 8.59038 4.33042C8.73848 4.47958 8.93976 4.5638 9.14996 4.56455C9.36015 4.5653 9.56203 4.48252 9.71118 4.33442L10.5192 3.53362C11.1112 2.94482 11.888 3.18882 12.396 3.69122C12.6648 3.95922 12.8136 4.31442 12.8136 4.69282C12.8136 5.07122 12.6648 5.42642 12.396 5.69362L9.85198 8.21682C8.68878 9.36962 8.14318 8.82962 7.91038 8.59842C7.83653 8.52509 7.74895 8.46703 7.65266 8.42754C7.55636 8.38806 7.45323 8.36792 7.34916 8.3683C7.24508 8.36867 7.1421 8.38953 7.04608 8.42971C6.95007 8.46988 6.86291 8.52857 6.78958 8.60242C6.71625 8.67628 6.65819 8.76385 6.6187 8.86015C6.57922 8.95644 6.55909 9.05957 6.55946 9.16365C6.55983 9.26773 6.5807 9.37071 6.62087 9.46672C6.66104 9.56273 6.71973 9.64989 6.79358 9.72322C7.32798 10.2528 7.93758 10.5152 8.57598 10.5152C9.35758 10.5152 10.184 10.1216 10.9704 9.34162L13.5144 6.81922C13.7955 6.54109 14.0185 6.2099 14.1705 5.84487C14.3225 5.47984 14.4005 5.08824 14.4 4.69282C14.4007 4.29711 14.3226 3.90522 14.1703 3.54C14.018 3.17479 13.7945 2.84355 13.5128 2.56562Z" fill="#7B6F72"/>
</svg>
